<svg fill="none" height="373" viewBox="0 0 414 373" width="414" xmlns="http://www.w3.org/2000/svg">
    <path
        d="M56.6811 259.436L55.2458 261.263C54.7302 261.919 55.1976 262.881 56.0321 262.881H57.9893C58.6537 262.881 59.1334 262.245 58.9509 261.606L58.4289 259.779C58.2047 258.994 57.1854 258.794 56.6811 259.436Z"
        stroke="#FF6600" />
    <path
        d="M142.814 342.422L138.305 343.174C137.747 343.267 137.378 343.803 137.488 344.356L138.156 347.694C138.265 348.239 138.798 348.591 139.342 348.476L144.068 347.481C144.636 347.362 144.983 346.786 144.824 346.228L143.94 343.134C143.8 342.645 143.315 342.339 142.814 342.422Z"
        fill="#27AE60" />
    <path
        d="M217.007 179.507L221.516 180.258C222.073 180.351 222.443 180.887 222.332 181.441L221.665 184.778C221.556 185.323 221.023 185.675 220.478 185.56L215.753 184.566C215.185 184.446 214.838 183.87 214.997 183.312L215.881 180.218C216.021 179.729 216.505 179.423 217.007 179.507Z"
        fill="#FF6600" />
    <path
        d="M0.5 1C14.0292 8.35798 102.402 63.6234 157.658 45.9643C212.914 28.3051 248 41 263.043 69.1063C268.977 84.4157 287.823 112.257 315.735 101.149C343.648 90.0409 354.187 107.914 355.967 118.239C368.5 167.5 373.27 210.807 414 202.262"
        opacity="0.7" stroke="#FF6600" stroke-width="0.5" />
    <path
        d="M59 201.681C82.18 194.093 135.379 180.767 162.734 188.165C200.539 198.978 238.421 240.094 252.636 259.301C275.048 287.044 338.697 344.025 414 350"
        opacity="0.7" stroke="#27AE60" stroke-width="0.5" />
    <circle cx="35.1049" cy="321.27" fill="#204387" r="2.13619" />
    <circle fill="#204387" r="2.13619" transform="matrix(-1 0 0 1 324.716 158.354)" />
    <circle cx="276.494" cy="290.651" r="3.77237" stroke="#204387" />
    <circle cx="146.899" cy="208.052" fill="#27AE60" r="2.13619" />
    <circle fill="#2F80ED" r="2.13619" transform="matrix(-1 0 0 1 212.922 45.1362)" />
    <path
        d="M353.821 261.1H348.911C348.04 261.1 347.585 262.137 348.175 262.778L353.085 268.114C353.702 268.785 354.821 268.348 354.821 267.437V262.1C354.821 261.548 354.373 261.1 353.821 261.1Z"
        fill="#2F80ED" />
    <path
        d="M6 98.1848H10.9099C11.7809 98.1848 12.2355 99.2209 11.6458 99.8619L6.73594 105.199C6.11905 105.869 5 105.433 5 104.522V99.1848C5 98.6325 5.44772 98.1848 6 98.1848Z"
        fill="#27AE60" />
    <path d="M68.5 366H351" stroke="black" stroke-width="0.5" />
    <defs>
        <linearGradient gradientUnits="userSpaceOnUse" id="paint0_linear" x1="332.84" x2="312.535"
            y1="350.644" y2="345.496">
            <stop />
            <stop offset="1" stop-color="#404040" />
        </linearGradient>
        <clipPath id="clip0">
            <rect fill="white" height="61.4543" transform="translate(63 304.491)" width="45.6344" />
        </clipPath>
        <clipPath id="clip1">
            <rect fill="white" height="146.03" transform="matrix(-1 0 0 1 278 226)"
                width="115.607" />
        </clipPath>
    </defs>
    <g opacity="0.9">
        <path
            d="M303.882 342.86L287.984 344.847C286.588 345.022 285.803 346.546 286.474 347.784L288.316 351.185C288.619 351.744 289.169 352.126 289.798 352.214L299.785 353.607C300.579 353.718 301.363 353.343 301.776 352.655L305.845 345.873C306.703 344.443 305.537 342.653 303.882 342.86Z"
            fill="black" stroke="black" />
        <path
            d="M278.256 352.01L270.915 350.112C268.829 349.572 268.953 346.57 271.076 346.204L285.684 343.686C286.374 343.567 287.076 343.818 287.535 344.347L289.378 346.474C290.03 347.226 290.03 348.342 289.378 349.094L287.394 351.384C287.014 351.822 286.462 352.074 285.882 352.074H278.756C278.587 352.074 278.419 352.053 278.256 352.01Z"
            fill="#FF7012" stroke="#FF7012" />
        <circle cx="223.019" cy="345.782" fill="#353535" r="20.0195" />
        <circle cx="223.019" cy="345.782" r="16.0875" stroke="white" />
        <circle cx="222.447" cy="345.782" fill="white" r="8.57977" />
        <circle cx="222.447" cy="346.354" fill="#353535" r="2.85992" />
        <circle cx="324.261" cy="345.782" fill="#353535" r="20.0195" />
        <circle cx="324.261" cy="345.782" r="16.0875" stroke="white" />
        <circle cx="323.689" cy="345.782" fill="white" r="8.57977" />
        <circle cx="323.689" cy="346.354" fill="#353535" r="2.85992" />
        <path
            d="M327.979 312.321H326.549L330.266 318.327V321.187H333.698V318.327L338.274 312.321H337.13L332.268 318.327H331.696L327.979 312.321Z"
            fill="black" />
        <path d="M318.541 312.893V312.035H348.856V312.893H318.541Z" fill="black" />
        <path
            d="M304.813 350.644L314.537 341.206C323.212 342.827 337.13 346.354 331.411 351.788C325.471 357.43 310.914 353.027 304.813 350.644Z"
            fill="url(#paint0_linear)" stroke="black" />
        <path d="M300.81 349.786V345.782L323.689 341.778L310.247 352.932L300.81 349.786Z"
            fill="#DFDFDF" stroke="#DFDFDF" />
        <path
            d="M271.066 314.004C271.066 316.289 273.445 318.469 275.232 319.686C275.859 320.113 276.612 320.295 277.371 320.295C278.8 320.295 280.114 319.58 281.122 318.567C284.829 314.845 290.278 313.196 294.857 312.482C300.228 311.643 305.098 308.999 309.961 306.568C311.791 305.653 312.439 304.852 312.535 304.566C314.136 299.075 309.008 298.846 306.243 299.418L299.615 301.738C296.43 302.852 293.08 303.422 289.705 303.422H284.053C281.695 303.422 279.272 303.558 277.176 304.637C272.621 306.983 271.066 311.174 271.066 314.004Z"
            fill="black" stroke="black" />
        <path
            d="M241.63 286.983C241.793 281.958 242.889 278.544 243.631 277.028C243.784 276.716 244.108 276.539 244.456 276.539H246.139C246.518 276.539 246.862 276.758 247.129 277.028C248.307 278.217 251.462 279.613 253.41 280.357C253.72 280.476 253.955 280.736 254.036 281.058L255.476 286.819C255.566 287.18 255.448 287.561 255.17 287.809L253.162 289.593C253.089 289.658 252.995 289.694 252.897 289.694C252.586 289.694 252.394 290.033 252.554 290.3L252.862 290.813C252.98 291.009 253 291.249 252.917 291.462L245.927 309.357C245.908 309.404 245.886 309.45 245.86 309.495C243.397 313.819 244.856 318.111 245.899 319.723L257.468 336.372C257.571 336.519 257.71 336.637 257.875 336.709C265.759 340.133 276.549 336.479 281.182 334.116C281.304 334.054 281.409 333.966 281.493 333.859C285.969 328.182 282.496 322.741 279.708 320.25C279.35 319.93 279.221 319.41 279.509 319.027C282.918 314.492 296.305 311.938 303.116 311.173C303.295 311.153 303.469 311.183 303.632 311.257L309.472 313.912C309.606 313.972 309.751 314.003 309.898 314.002C329.435 313.897 348.956 329.197 349.96 331.837C350.006 331.958 349.981 332.076 349.923 332.191C346.872 338.303 313.451 345.424 296.748 348.284C296.594 348.31 296.455 348.3 296.302 348.267C291.908 347.339 267.212 351.76 259.626 352.041C253.705 352.26 247.835 346.539 245.344 343.294C245.149 343.041 244.852 342.889 244.532 342.889H236.647C236.348 342.889 236.056 342.743 235.864 342.514C221.805 325.743 214.7 339.079 206.957 333.567C206.633 333.337 206.498 332.916 206.628 332.54C209.386 324.546 220.553 320.891 226.81 319.878C227.387 319.784 227.775 319.233 227.723 318.651C226.852 308.957 239.94 294.398 247.206 287.776C247.463 287.542 247.589 287.192 247.482 286.862C246.985 285.321 245.926 286.19 245.267 287.078C245.114 287.284 244.902 287.441 244.654 287.503L242.852 287.954C242.22 288.111 241.609 287.633 241.63 286.983Z"
            fill="#FF6600" stroke="#FF6600" stroke-linejoin="round" />
        <path
            d="M240.907 342.889H236.647C236.348 342.889 236.057 342.744 235.865 342.515C222.992 327.159 215.95 337.041 208.91 334.59C208.339 334.391 208.173 333.695 208.558 333.229C211.792 329.305 219.121 323.547 227.595 326.301C235.953 329.018 240.336 337.029 241.832 341.666C242.031 342.284 241.555 342.889 240.907 342.889Z"
            fill="#FF7012" stroke="#FF7012" stroke-linejoin="round" />
        <path
            d="M242.181 342.889C241.132 338.599 236.747 329.276 227.595 326.301C218.444 323.327 210.626 330.281 207.862 334.13"
            stroke="#DFDFDF" stroke-linejoin="round" stroke-width="0.5" />
        <path
            d="M345.71 334.023C334.499 325.787 319.685 324.681 313.679 325.157C308.245 325.589 302.697 331.049 302.239 336.311C301.782 341.573 304.146 343.27 305.385 343.461C316.139 343.461 336.749 337.169 345.71 334.023Z"
            fill="#FF7012" stroke="#FF7012" />
        <path
            d="M313.679 325.157C308.245 325.589 302.697 331.049 302.239 336.311C301.782 341.573 304.146 343.27 305.385 343.461C311.654 343.461 321.273 341.323 329.981 338.916"
            stroke="#DFDFDF" stroke-width="0.5" />
        <path
            d="M252.763 290.014H251.457C249.778 290.014 248.218 290.878 247.329 292.302V292.302L235.719 312.061C235.092 313.127 234.873 314.385 235.174 315.585C237.1 323.241 242.521 337.475 252.191 345.463C253.907 346.988 259.283 349.581 267.062 347.751C274.841 345.92 280.981 345.463 283.078 345.463"
            stroke="#454545" stroke-width="0.5" />
        <path
            d="M283.078 343.461C278.788 343.938 268.893 345.005 263.63 345.463C258.368 345.92 254.765 343.175 253.621 341.745C249.903 336.025 242.009 323.67 240.179 320.009C238.349 316.349 239.416 312.002 240.179 310.286L243.249 303.378C243.469 302.883 243.96 302.564 244.502 302.564V302.564C245.456 302.564 246.119 303.515 245.787 304.411L243.611 310.286C242.944 312.192 242.009 316.806 243.611 320.009C245.163 323.113 250.597 330.94 253.362 334.806C253.524 335.033 253.786 335.167 254.065 335.167V335.167C254.744 335.167 255.158 334.421 254.799 333.844L246.185 320.009"
            stroke="#DFDFDF" stroke-width="0.5" />
        <path
            d="M274.498 338.313C274.711 339.165 275.464 340.747 276.968 341.783C278.059 342.533 279.462 342.5 280.771 342.301L282.266 342.074C287.644 341.255 291.316 336.066 293.298 331C294.522 327.87 296.647 324.667 300.155 322.171C301.47 321.235 302.686 320.15 303.699 318.893C305.301 316.906 307.553 314.623 309.389 314.29M281.648 318.007C283.078 319.628 286.052 324.013 286.51 328.589C286.967 333.165 283.078 335.834 281.076 336.597"
            stroke="#DFDFDF" stroke-width="0.5" />
        <path
            d="M272.21 315.72L276.824 314.243C278.502 313.706 280.071 312.878 281.462 311.797L281.713 311.602C283.551 310.172 285.697 309.19 287.98 308.733L298.65 306.599C299.705 306.388 300.735 306.064 301.721 305.633L306.515 303.536C308.41 302.706 310.466 302.278 312.535 302.278V302.278"
            stroke="#DFDFDF" stroke-linejoin="round" />
        <path
            d="M227.505 309.345C233.045 298.977 239.058 293.56 241.837 292.104C242.241 291.893 242.437 292.258 242.109 292.574C233.836 300.57 227.712 311.378 227.326 318.949C227.312 319.222 227.091 319.437 226.818 319.437H226.298C226.211 319.437 226.126 319.415 226.05 319.372L224.415 318.437C224.259 318.348 224.163 318.183 224.163 318.003V317.131C224.163 316.964 224.247 316.808 224.386 316.715L225.999 315.64C226.299 315.439 226.238 314.981 225.895 314.867C225.547 314.751 225.491 314.282 225.803 314.087L226.72 313.514C227.004 313.337 227.021 312.929 226.753 312.729C226.477 312.521 226.506 312.098 226.808 311.931L228.088 311.22C228.399 311.047 228.435 310.614 228.157 310.392L227.632 309.972C227.445 309.822 227.392 309.557 227.505 309.345Z"
            fill="black" stroke="black" stroke-linejoin="round" />
        <path
            d="M239.893 287.978H241.609C241.609 281.801 243.134 277.587 243.897 276.253C243.325 276.062 242.067 275.795 241.609 276.253C240.008 276.71 239.798 284.26 239.893 287.978Z"
            fill="black" stroke="black" />
        <path
            d="M259.912 340.315C256.252 338.713 255.909 336.216 256.195 335.167C257.91 336.883 258.482 338.313 267.92 337.741C274.775 337.326 279.741 334.976 281.362 333.451C283.459 334.214 281.362 337.357 277.644 338.313C269.636 340.372 262.486 340.506 259.912 340.315Z"
            fill="black" stroke="black" />
        <circle cx="282.792" cy="352.36" fill="black" r="1.42996" />
        <path
            d="M250.593 284.021H253.739C253.739 286.08 253.811 287.63 254.479 288.298L257.457 286.595H259.745C261.118 286.366 261.27 284.784 261.175 284.021C260.889 282.591 259.23 279.788 254.883 280.017C250.536 280.246 250.212 282.782 250.593 284.021Z"
            fill="#FF7012" stroke="#FF7012" />
        <circle cx="258.768" cy="284.294" fill="white" r="1.42996" />
        <path
            d="M263.63 284.294L258.768 283.436C258.082 283.893 257.91 284.866 258.768 285.152L263.344 286.01L263.63 284.294Z"
            fill="black" stroke="black" />
        <circle cx="263.63" cy="285.152" fill="white" r="1.14397" />
    </g>
    <path
        d="M317.969 307.605V287.58C317.969 285.923 319.312 284.58 320.969 284.58H346.142C347.799 284.58 349.142 285.923 349.142 287.58V307.605C349.142 309.262 347.799 310.605 346.142 310.605H320.969C319.312 310.605 317.969 309.262 317.969 307.605Z"
        fill="white" />
    <path d="M317.968 289.871H349.143" stroke="#252525" stroke-width="0.5" />
    <path
        d="M330.273 296.792L330.234 296.916C330.428 296.916 333.157 296.879 333.682 296.916C333.935 296.916 334.765 296.946 335.159 296.979L335.158 296.977C335.048 296.811 334.548 296.049 333.414 296C332.339 295.995 331.883 296.596 331.804 296.666C331.74 296.722 331.604 296.731 331.544 296.729H330.39C330.31 296.729 330.279 296.771 330.273 296.792Z"
        fill="#FF6600" />
    <path
        d="M335.53 298.079C335.628 297.861 335.61 297.467 335.586 297.29C335.727 297.424 335.808 297.71 335.752 297.986C335.727 298.161 335.636 298.336 335.54 298.528C335.474 298.691 335.531 298.734 335.568 298.736H335.586L335.605 298.752C335.425 298.848 335.428 298.836 335.416 298.9C335.405 299.004 335.296 299.217 335.243 299.311C334.908 299.903 334.264 300.22 333.984 300.304C333.909 300.345 333.602 300.372 333.458 300.381H332.911C332.881 300.317 333.125 299.3 333.25 298.799H333.617C334.551 298.799 335.232 298.75 335.53 298.079Z"
        fill="#FF6600" stroke="#FF6600" stroke-linecap="round" stroke-linejoin="round"
        stroke-width="0.5" />
    <path
        d="M333.759 297.383L331.297 297.404C331.265 297.518 331.131 298.04 331.159 298.379C331.159 298.9 331.633 299.787 332.133 299.981C332.137 300.006 332.125 300.094 332.119 300.136C332.099 300.283 332.021 300.565 332.021 300.762H332.203C332.185 300.709 332.435 299.595 332.563 299.044C332.574 298.994 332.687 298.481 332.764 298.306H333.759C334.393 298.306 335.044 298.388 335.044 297.862C335.033 297.253 334.243 297.383 333.759 297.383Z"
        fill="black" />
    <path clip-rule="evenodd"
        d="M329.002 302.991H329.201V302.439H329.364C329.745 302.439 329.745 302.14 329.745 302.117C329.753 301.995 329.688 301.752 329.364 301.757C329.098 301.762 329.015 301.76 329.002 301.758V301.757C329 301.758 328.999 301.758 329.002 301.758V302.991ZM329.208 301.935V302.273C329.397 302.273 329.533 302.267 329.535 302.119C329.537 301.972 329.43 301.921 329.208 301.935Z"
        fill="#FF6600" fill-rule="evenodd" />
    <path clip-rule="evenodd"
        d="M331.953 303.042C332.32 303.042 332.617 302.745 332.617 302.379C332.617 302.012 332.32 301.715 331.953 301.715C331.587 301.715 331.29 302.012 331.29 302.379C331.29 302.745 331.587 303.042 331.953 303.042ZM331.953 302.832C332.204 302.832 332.407 302.629 332.407 302.379C332.407 302.128 332.204 301.925 331.953 301.925C331.703 301.925 331.5 302.128 331.5 302.379C331.5 302.629 331.703 302.832 331.953 302.832Z"
        fill="#FF6600" fill-rule="evenodd" />
    <path clip-rule="evenodd"
        d="M336.336 303.042C336.703 303.042 337 302.745 337 302.379C337 302.012 336.703 301.715 336.336 301.715C335.97 301.715 335.673 302.012 335.673 302.379C335.673 302.745 335.97 303.042 336.336 303.042ZM336.336 302.832C336.587 302.832 336.79 302.629 336.79 302.379C336.79 302.128 336.587 301.925 336.336 301.925C336.086 301.925 335.883 302.128 335.883 302.379C335.883 302.629 336.086 302.832 336.336 302.832Z"
        fill="#FF6600" fill-rule="evenodd" />
    <path d="M334.558 301.956V301.738H335.413V301.956H335.089V302.998H334.878V301.956H334.558Z"
        fill="#FF6600" />
    <path
        d="M333.063 302.995H333.264V302.175L334.191 303.075V301.757H333.986V302.596L333.063 301.689V302.995Z"
        fill="#FF6600" />
    <path d="M331.005 302.995H330.773L330.351 302.425L330.554 302.402L331.005 302.995Z"
        fill="#FF6600" />
    <path clip-rule="evenodd"
        d="M330.147 302.995H330.345V302.444H330.509C330.89 302.444 330.89 302.145 330.89 302.122C330.898 301.999 330.832 301.756 330.509 301.762C330.243 301.766 330.16 301.765 330.147 301.763V301.762C330.144 301.762 330.144 301.763 330.147 301.763V302.995ZM330.352 301.939V302.278C330.542 302.278 330.678 302.272 330.68 302.124C330.681 301.976 330.574 301.925 330.352 301.939Z"
        fill="#FF6600" fill-rule="evenodd" />
    <path
        d="M329.86 303.467V303.869H330.145M331.872 303.612C331.864 303.564 331.82 303.477 331.678 303.477C331.507 303.477 331.467 303.577 331.47 303.678C331.47 303.78 331.533 303.883 331.678 303.881C331.822 303.879 331.879 303.804 331.879 303.699H331.678M332.374 303.463V303.888M332.862 303.734V303.755C332.864 303.799 332.901 303.879 333.037 303.879C333.173 303.879 333.201 303.822 333.201 303.778C333.201 303.734 333.168 303.679 333.037 303.673C332.982 303.671 332.872 303.646 332.876 303.565C332.88 303.485 332.985 303.47 333.037 303.472C333.084 303.472 333.184 303.49 333.192 303.598M333.645 303.479H333.824M334.002 303.479H333.824M333.824 303.479V303.89M334.453 303.89V303.463M335.332 303.551C335.273 303.474 335.207 303.472 335.154 303.474C335.082 303.476 334.939 303.519 334.949 303.68C334.96 303.881 335.124 303.876 335.154 303.879C335.22 303.883 335.318 303.839 335.325 303.801M336.136 303.598C336.139 303.554 336.114 303.474 335.979 303.474C335.839 303.474 335.817 303.54 335.82 303.568C335.82 303.608 335.854 303.654 335.979 303.671C336.034 303.673 336.143 303.698 336.145 303.778C336.147 303.879 336.005 303.879 335.979 303.879C335.953 303.879 335.815 303.872 335.811 303.778V303.736M330.577 303.675C330.577 303.608 330.608 303.481 330.797 303.481C330.998 303.481 330.998 303.652 330.998 303.675C330.998 303.813 330.9 303.879 330.797 303.881C330.615 303.881 330.577 303.755 330.577 303.675Z"
        stroke="black" stroke-linejoin="round" stroke-width="0.05" />
    <g clip-path="url(#clip0)">
        <path clip-rule="evenodd"
            d="M64.3853 306.686C63.7176 306.354 62.8276 306.739 63.1989 307.615C63.5966 308.553 65.067 308.565 65.8975 308.546C65.8144 308.542 65.5467 307.681 65.4551 307.551C65.1848 307.168 64.7957 306.89 64.3853 306.686ZM72.0777 323.506C72.2461 323.651 72.0914 323.52 72.0777 323.506V323.506ZM63.7421 310.929C63.3514 311.228 63.3328 311.756 63.652 312.113C64.032 312.539 64.7259 312.523 65.2439 312.482C65.4782 312.463 66.7293 312.363 66.4328 312.158C66.4556 312.166 66.5032 312.187 66.5542 312.216C66.5817 312.316 66.6105 312.416 66.6405 312.516C66.6331 312.52 66.6269 312.525 66.619 312.529C66.6275 312.525 66.6335 312.521 66.641 312.517C66.9419 313.513 67.3701 314.46 67.9309 315.346C67.7211 315.264 67.5038 315.201 67.2834 315.173C66.6307 315.091 65.2576 315.598 65.9877 316.468C66.6878 317.302 67.7776 316.408 68.5721 316.284C69.3428 317.361 70.1925 318.393 71.0829 319.39C71.0284 319.407 70.9805 319.443 70.953 319.498C70.5958 319.317 70.2236 319.057 69.8929 318.987C69.4159 318.886 68.4376 318.825 68.0771 319.252C67.6336 319.778 68.1089 320.205 68.6329 320.305C69.3927 320.452 70.3872 320.08 71.1183 319.829C71.2019 319.844 71.2932 319.819 71.3477 319.752C71.3639 319.747 71.38 319.742 71.3957 319.737C72.2975 320.729 73.2337 321.689 74.1643 322.628C74.1544 322.627 74.1445 322.627 74.1341 322.626C73.8914 322.467 73.631 322.336 73.3488 322.267C72.696 322.108 71.9278 322.107 71.398 322.58C70.8703 323.051 70.6833 323.875 71.2293 324.403C72.3221 325.462 73.9323 323.048 74.4835 322.948C75.4291 323.892 76.429 324.774 77.4447 325.638C77.3293 325.603 77.211 325.577 77.0888 325.565C76.0929 325.47 73.7553 326.692 74.9775 327.894C76.0426 328.942 77.2753 326.925 78.1337 326.22C79.0907 327.025 80.053 327.825 80.9882 328.656C80.4782 328.521 79.9852 328.501 79.4384 328.666C78.8726 328.838 77.9596 329.265 78.3173 330.03C78.681 330.808 79.7774 330.454 80.3484 330.207C80.6599 330.072 81.2843 329.618 81.8326 329.426C83.325 330.837 84.6177 332.39 85.5963 334.22C86.2073 335.363 86.6709 336.584 86.9972 337.839C87.2055 338.64 87.616 339.985 87.5338 341.027C87.9254 338.941 87.2173 336.435 86.4545 334.57C85.7531 332.855 84.7033 331.349 83.4738 329.994C83.7824 329.065 86.3794 327.725 84.8268 326.862C84.0024 326.406 83.158 327.163 82.9778 327.965C82.854 328.516 83.0426 329.209 83.2427 329.744C82.8559 329.33 82.4539 328.931 82.0395 328.544C81.4669 328.01 80.8806 327.491 80.2887 326.979C81.2641 326.062 82.1872 323.439 80.8794 323.01C78.9482 322.379 79.8781 325.956 80.0128 326.626C80.051 326.629 80.0809 326.617 80.1028 326.592C80.0919 326.654 80.0793 326.719 80.0641 326.785C78.9311 325.81 77.7814 324.854 76.6696 323.856C76.7697 323.782 76.929 323.498 77.0541 323.348C77.3366 323.008 77.6069 322.653 77.8044 322.255C78.1164 321.627 78.4173 320.625 77.5902 320.256C76.6908 319.853 76.2634 320.986 76.2571 321.662C76.2528 322.13 76.38 322.574 76.4463 323.033C76.467 323.176 76.3873 323.82 76.5818 323.543C76.5726 323.645 76.5713 323.719 76.5758 323.771C76.3762 323.591 76.1782 323.409 75.9813 323.226C75.9905 323.202 75.9972 323.177 75.9987 323.148C76.0093 322.946 75.8067 322.869 75.6646 322.928C75.4049 322.681 75.1477 322.431 74.8951 322.175C74.3598 321.635 73.8167 321.079 73.2774 320.511C73.3944 320.41 73.3479 320.271 73.4573 320.164C73.5665 320.058 73.7817 319.999 73.9102 319.9C74.2333 319.651 74.5013 319.288 74.6951 318.93C75.015 318.34 75.4285 317.102 74.4939 316.82C73.5305 316.53 73.0415 317.722 72.9795 318.467C72.9675 318.611 73.0755 319.912 73.1582 320.385C72.1602 319.33 71.1786 318.235 70.2894 317.121C70.559 317.118 71.3234 316.565 71.478 316.414C71.855 316.046 72.4545 315.233 71.7934 314.803C71.2056 314.421 70.4811 314.974 70.2297 315.511C70.1884 315.6 70.0427 316.423 70.0313 316.793C69.6633 316.32 69.3122 315.845 68.9855 315.369C68.7677 315.052 68.5641 314.726 68.3737 314.394C68.4195 314.368 68.4626 314.323 68.5034 314.266C69.4837 314.1 70.7336 312.569 69.5821 312.036C69.0338 311.783 68.4393 312.305 68.1707 312.734C68.1157 312.821 68.0266 313.261 67.954 313.609C67.4061 312.508 66.9874 311.343 66.6686 310.149C66.754 310.127 66.8263 310.062 66.8358 309.95C67.3117 309.678 67.6876 309.452 68.0199 308.93C68.2263 308.605 68.598 307.864 67.9915 307.684C67.2022 307.45 66.7064 308.657 66.6419 309.251C66.6343 309.32 66.6346 309.521 66.6372 309.705C66.6098 309.701 66.5821 309.701 66.5549 309.706C66.3737 308.966 66.229 308.217 66.1139 307.467C66.5447 307.328 66.6192 305.063 66.3324 304.74C65.6912 304.018 65.2389 305.061 65.2731 305.613C65.3136 306.263 65.6078 306.854 65.9582 307.379C65.9958 307.434 65.9851 307.432 65.9948 307.354C66.0002 307.393 66.013 307.421 66.0319 307.441C66.0139 307.783 65.9786 308.134 65.9955 308.437C66.0441 309.304 66.145 310.176 66.2914 311.032C66.3271 311.24 66.3679 311.446 66.4136 311.651C66.0674 311.356 65.6005 311.093 65.4179 311.011C64.9437 310.799 64.2131 310.569 63.7421 310.929ZM87.5894 341.03C87.5674 341.332 87.5129 341.609 87.4111 341.837C87.4874 341.577 87.546 341.307 87.5894 341.03Z"
            fill="#F2F2F2" fill-rule="evenodd" />
        <g opacity="0.7">
            <path clip-rule="evenodd"
                d="M77.3723 327.165C79.2265 327.069 81.5197 328.153 81.7175 330.17C81.8612 331.636 81.8167 333.098 82.0391 334.562C82.2169 335.732 82.593 336.855 83.1059 337.921C83.5992 338.945 84.6223 339.818 84.8884 340.912C85.058 341.61 84.9631 342.591 84.7292 343.273C84.4447 344.103 84.5959 344.037 85.1627 344.734C86.2733 346.098 87.2734 347.497 87.9806 349.126C88.9993 351.472 89.6672 354.215 89.2891 356.784C89.241 357.11 89.184 358.281 88.7352 358.363C88.2341 358.454 88.4684 357.785 88.4952 357.569C88.6657 356.189 88.8172 354.983 88.6115 353.581C87.8179 348.174 83.9429 344.611 81.4198 340.022C81.2811 339.785 80.9883 339.222 80.7847 338.85C80.4632 338.263 80.1401 337.146 79.705 336.711C78.8855 335.891 79.6389 337.539 79.7986 337.854C80.0005 338.252 80.2226 338.675 80.4295 339.024C81.3761 340.641 82.4328 342.406 83.4104 344.072C79.182 345.037 76.2041 339.948 75.0694 336.602C74.1345 333.846 73.0159 327.401 77.3723 327.165Z"
                fill="#69A1AC" fill-rule="evenodd" opacity="0.7" />
            <path clip-rule="evenodd"
                d="M102.225 322.047C99.1249 322.293 97.1349 324.34 96.2086 327.204C95.7093 328.748 95.6521 330.333 95.3747 331.919C94.9573 334.305 94.0593 336.114 92.3043 337.814C91.7607 338.34 91.3602 338.881 91.0754 339.459C90.5101 340.037 90.0181 340.69 89.6566 341.489C89.1948 342.509 89.0641 343.733 89.5973 344.75C89.7406 345.024 90.0983 345.573 90.4689 345.822C89.0813 348.781 88.3183 352.021 88.4043 355.257C88.4562 357.21 88.5515 359.165 88.6626 361.116C88.6926 361.64 88.863 362.505 89.1189 361.626C89.3532 360.823 89.0594 359.561 89.0323 358.721C88.9 354.632 88.7869 350.913 90.4687 347.092C90.645 346.691 90.832 346.294 91.0268 345.9C91.0382 345.893 91.0488 345.885 91.0595 345.878C91.067 345.883 91.0737 345.89 91.0811 345.895C91.0936 345.873 91.1106 345.847 91.1305 345.817C91.1863 345.759 91.2351 345.686 91.2815 345.605C91.4306 345.398 91.5995 345.155 91.6004 345.022C91.6004 345.021 91.5998 345.019 91.5998 345.018C92.6409 343.317 93.8334 341.709 95.0514 340.133C95.0423 340.145 96.3726 338.331 96.1669 339.334C96.0678 339.817 95.0892 340.738 94.694 341.25C93.8198 342.388 92.7932 343.831 91.9401 345.226C91.8253 345.292 91.6631 345.617 91.5458 345.858C91.481 345.981 91.4206 346.104 91.3612 346.211C94.384 347.211 96.7355 345.197 98.3389 342.855C98.3409 342.852 98.3426 342.849 98.3444 342.847C98.8323 342.199 99.3322 341.557 99.9566 341.045C100.998 340.191 102.114 340.041 103.342 339.62C106.692 338.475 108.116 334.129 108.569 330.904C109.079 327.266 106.583 321.688 102.225 322.047Z"
                fill="#89C5CC" fill-rule="evenodd" opacity="0.7" />
            <path clip-rule="evenodd"
                d="M96.1016 311.859C92.9202 315.174 91.3833 319.771 90.1662 324.093C88.807 328.92 87.9092 333.822 87.8747 338.841C87.8521 342.138 87.7625 345.456 87.9548 348.75C88.023 349.919 88.1395 351.091 88.3247 352.248C88.3399 352.343 88.7543 354.927 89.1507 354.325C89.3762 353.983 88.726 351.645 88.6769 351.255C88.4005 349.062 88.3363 346.853 88.3498 344.644C88.3719 341.007 88.2648 337.388 88.633 333.765C88.6879 333.224 88.7314 332.656 88.8597 332.126C88.996 331.564 88.8224 331.809 89.2664 331.586C89.6978 331.37 90.2309 331.401 90.6785 331.129C92.454 330.051 93.3622 327.283 94.0691 325.467C94.8776 323.389 95.369 321.174 95.7615 318.988C96.0497 317.382 96.2557 315.786 96.3723 314.159C96.4091 313.647 96.4113 313.111 96.5119 312.606C96.539 312.47 96.6751 312.23 96.6701 312.109C96.6597 311.855 96.506 311.705 96.4934 311.491C96.3603 311.611 96.2295 311.733 96.1016 311.859Z"
                fill="#89C5CC" fill-rule="evenodd" opacity="0.7" />
            <path clip-rule="evenodd"
                d="M78.7546 356.02C78.7546 361.502 83.1936 365.946 88.6693 365.946C94.1449 365.946 98.5839 361.502 98.5839 356.02"
                fill="#89C5CC" fill-rule="evenodd" opacity="0.7" />
            <path clip-rule="evenodd"
                d="M89.4648 356.052H88.9409C88.9773 355.394 89.0253 354.737 89.1352 354.086C89.5554 351.598 90.8695 347.943 93.7516 347.539C93.8579 347.524 94.249 347.522 94.7228 347.549C94.9473 347.424 95.1988 347.348 95.4639 347.33C97.9177 347.149 100.658 349.131 101.842 351.193C102.796 352.856 102.635 355.039 102.046 356.806C101.651 357.989 100.79 359.675 99.3533 359.691C97.5562 359.712 97.4695 357.488 97.4347 356.188C97.3886 354.46 97.1704 352.955 95.8102 351.777C95.4931 351.502 95.1466 351.261 94.8264 350.99C94.3249 350.567 93.7708 350.133 93.7062 349.433C93.617 348.466 94.1621 348.292 94.9944 348.471C95.1363 348.502 96.5655 349.144 96.3539 348.637C96.2893 348.482 96.0533 348.359 95.7555 348.267C94.9848 348.183 94.0657 348.085 93.8014 348.144C90.9499 348.77 89.8396 352.724 89.5448 355.236C89.513 355.507 89.4872 355.779 89.4648 356.052Z"
                fill="#69A1AC" fill-rule="evenodd" opacity="0.7" />
        </g>
    </g>
    <path clip-rule="evenodd"
        d="M128.24 250.868C127.272 248.832 126.86 246.545 127.63 244.311C129.848 237.876 138.591 241.765 139.48 245.551C140.369 249.337 137.908 257.677 135.454 257.654C134.475 257.644 132.68 256.544 131.016 254.816L129.901 263.963L122.545 261.992L128.24 250.868Z"
        fill="#D4A181" fill-rule="evenodd" />
    <path clip-rule="evenodd"
        d="M130.909 251.089C129.528 252.595 127.913 253.576 126.653 253.238C124.259 252.597 123.415 248.94 124.337 245.499C124.369 245.378 124.404 245.259 124.44 245.141C121.443 246.2 118.573 249.102 115.223 248.205C110.665 246.983 111.318 237.304 117.686 239.011C122.018 240.171 123.979 241.373 125.565 242.799C126.2 241.875 126.982 241.165 127.818 240.747C128.03 240.607 128.326 240.499 128.69 240.423C128.916 240.368 129.142 240.335 129.369 240.325C130.585 240.215 132.266 240.358 134.074 240.775C134.412 240.853 134.741 240.938 135.061 241.028C135.518 239.341 137.254 238.341 138.944 238.794C140.636 239.248 141.641 240.987 141.187 242.68C140.749 244.317 139.107 245.31 137.469 244.963C136.468 245.001 135.225 244.892 133.885 244.628C133.884 245.143 133.807 245.707 133.641 246.325C133.495 246.869 133.28 247.431 133.012 247.988C132.818 247.573 132.495 247.249 132.108 247.145C131.023 246.854 130.03 247.544 129.776 248.491C129.454 249.693 129.915 250.748 130.909 251.089Z"
        fill="#191847" fill-rule="evenodd" />
    <path clip-rule="evenodd"
        d="M113.164 290.04L124.786 330.089L130.252 360.158H135.739L130.262 290.04H113.164Z"
        fill="#BA8B72" fill-rule="evenodd" />
    <path clip-rule="evenodd"
        d="M107.94 290.04C108.751 310.845 108.431 322.193 108.25 324.083C108.068 325.973 107.038 338.633 100.017 360.793H105.723C115.022 339.534 118.268 326.875 119.335 324.083C120.401 321.291 123.551 309.944 128.15 290.04H107.94Z"
        fill="#D4A181" fill-rule="evenodd" />
    <path clip-rule="evenodd"
        d="M112.914 290.04C115.937 303.821 121.166 325.819 128.6 356.034H136.625C137.218 325.021 134.696 304.609 130.33 290.04H112.914Z"
        fill="#69A1AC" fill-rule="evenodd" />
    <path clip-rule="evenodd"
        d="M107.9 290.04C108.694 310.845 106.636 331.342 100.26 356.358H108.822C118.138 335.416 124.815 315.02 129.378 290.04H107.9Z"
        fill="#89C5CC" fill-rule="evenodd" />
    <path clip-rule="evenodd"
        d="M99.2034 364.918L99.5182 359.841C101.362 360.38 103.671 360.169 106.445 359.206C109.429 361.32 113.185 362.763 117.713 363.535C118.058 363.594 118.29 363.922 118.231 364.268C118.228 364.29 118.223 364.312 118.216 364.334L117.781 365.869H106.445H99.8331L99.2034 364.918Z"
        fill="#191847" fill-rule="evenodd" />
    <path clip-rule="evenodd"
        d="M129.028 364.918L129.342 359.841C131.186 360.38 133.495 360.169 136.27 359.206C139.253 361.32 143.009 362.763 147.537 363.535C147.882 363.594 148.115 363.922 148.056 364.268C148.052 364.29 148.047 364.312 148.041 364.334L147.605 365.869H136.27H129.657L129.028 364.918Z"
        fill="#191847" fill-rule="evenodd" />
    <path clip-rule="evenodd"
        d="M135.865 272.203L147.758 268.176C149.939 266.352 152.01 265.002 153.969 264.126C154.543 263.997 155.502 264.027 154.354 265.425C153.205 266.823 152.06 268.346 152.422 268.903C152.783 269.459 154.012 268.987 154.403 269.876C154.664 270.468 152.618 270.97 148.265 271.382L139.112 277.208L135.865 272.203ZM151.968 280.21L157.193 278.433C158.31 276.007 159.335 274.869 160.267 275.017C161.04 274.81 159.229 277.805 160.632 277.765C162.035 277.725 165.773 275.85 166.254 276.449C166.966 277.336 165.816 279.47 164.732 280.442C162.706 282.258 161.21 282.737 157.659 283.084C155.802 283.265 153.715 283.917 151.396 285.039L151.968 280.21Z"
        fill="#D4A181" fill-rule="evenodd" />
    <path clip-rule="evenodd"
        d="M130.817 269.949C134.623 270.578 139.83 270.669 145.84 268.192L147.128 273.3C142.747 276.342 136.969 278.458 132.408 277.521C128.813 276.782 127.737 272.088 130.817 269.949Z"
        fill="#1B8548" fill-rule="evenodd" />
    <path clip-rule="evenodd"
        d="M134.593 278.442C138.449 280.159 145.421 280.165 155.509 278.461C157.005 283.748 157.481 287.413 156.938 289.456C148.044 292.274 140.73 292.939 134.958 292.051C134.539 295.495 133.551 298.668 131.633 301.389C127.689 306.982 111.891 298.372 106.048 298.488C104.537 286.381 112.197 282.919 113.498 275.572C114.923 267.525 123.569 256.278 124.519 256.446L133.189 257.975C132.584 264.205 133.797 271.402 134.593 278.442Z"
        fill="#27AE60" fill-rule="evenodd" />
    <g clip-path="url(#clip1)">
        <path clip-rule="evenodd"
            d="M223.263 245.966C224.849 244.26 225.96 242.136 225.883 239.706C225.661 232.702 215.792 233.855 213.746 237.306C211.7 240.757 211.578 249.708 214.019 250.434C214.993 250.724 217.112 250.19 219.294 249L217.59 258.333L225.493 258.641L223.263 245.966Z"
            fill="#B28B67" fill-rule="evenodd" />
        <path clip-rule="evenodd"
            d="M219.241 240.219C218.776 244.384 217.894 246.441 216.596 246.39C214.649 246.314 213.045 245.025 212.19 244.992C211.568 244.967 211.677 245.745 212.067 246.334C212.389 246.82 214.03 247.34 214.001 248.072C213.973 248.805 212.685 248.187 212.668 248.622C212.639 249.34 212.356 250.682 213.615 250.732C214.888 250.781 218.558 250.464 219.257 248.615C219.708 247.421 220.067 244.926 220.334 241.129C220.411 241.123 220.49 241.121 220.57 241.124C221.661 241.167 222.511 242.078 222.469 243.16C222.448 243.709 222.2 244.196 221.819 244.537C222.251 245.195 222.738 245.883 223.298 246.595C225.555 245.37 227.341 241.594 225.329 237.822C224.803 235.992 223.492 234.974 221.916 234.463C220.646 233.878 219.308 233.765 218.164 234.042C215.939 234.144 213.933 234.737 213.356 235.113C213.275 237.194 213.658 237.827 217.134 237.908C217.971 238.388 218.597 239.183 219.241 240.219Z"
            fill="black" fill-rule="evenodd" />
        <path clip-rule="evenodd"
            d="M225.322 287.587L209.147 328.368L198.299 362.844H194.015L210.6 287.587L225.322 287.587Z"
            fill="#997659" fill-rule="evenodd" />
        <path clip-rule="evenodd"
            d="M228.579 287.587C228.751 301.918 225.483 321.211 225.884 322.105C226.152 322.7 228.867 346.018 234.799 360.469L230.48 361.941C221.717 347.235 217.925 328.424 216.931 326.76C215.44 324.264 216.367 301.297 212.47 287.587H228.579Z"
            fill="#B28B67" fill-rule="evenodd" />
        <path clip-rule="evenodd"
            d="M235.072 360.485C235.564 361.413 235.842 362.12 235.904 362.605C235.981 363.194 235.994 364.067 235.944 365.223C235.437 365.288 231.651 365.973 225 366.5C222.677 366.684 217 366.5 217 366.5C216.316 364.978 216.992 365.198 218.008 364.938C219.024 364.678 219.866 364.453 220.536 364.263L228.609 359.334C228.764 359.239 228.967 359.288 229.062 359.443C229.063 359.446 229.065 359.449 229.066 359.451L229.79 360.716C230.803 361.038 231.608 361.16 232.206 361.083C232.691 361.02 233.336 360.737 234.14 360.234C234.449 360.041 234.856 360.135 235.049 360.444C235.057 360.457 235.065 360.471 235.072 360.485Z"
            fill="#191847" fill-rule="evenodd" />
        <path clip-rule="evenodd"
            d="M200.053 361.285C200.421 362.269 200.606 363.006 200.606 363.494C200.606 364.088 200.507 364.956 200.309 366.096C199.619 366.096 193.424 366.096 181.722 366.096C181.239 364.499 181.517 363.637 182.558 363.51C183.599 363.382 184.463 363.267 185.152 363.165L193.791 359.313C193.957 359.239 194.152 359.314 194.226 359.48C194.227 359.483 194.228 359.486 194.23 359.489L194.785 360.836C195.748 361.285 196.531 361.51 197.133 361.51C197.623 361.51 198.299 361.312 199.161 360.917L199.161 360.917C199.492 360.765 199.883 360.911 200.035 361.242C200.041 361.256 200.047 361.27 200.053 361.285Z"
            fill="#191847" fill-rule="evenodd" />
        <path clip-rule="evenodd"
            d="M214.447 359.293L194.079 357.091L209.174 287.587H227.417L214.447 359.293Z"
            fill="#14133C" fill-rule="evenodd" />
        <path clip-rule="evenodd"
            d="M244.839 353.624L222.326 360.317C211.319 338.413 211.014 327.019 210.888 326.244C209.7 318.942 210.888 307.533 210.888 287.587H231.426C232.444 305.735 232.772 316.12 233.126 316.965C233.48 317.809 236.625 339.782 244.839 353.624Z"
            fill="#212051" fill-rule="evenodd" />
        <path clip-rule="evenodd"
            d="M234.987 289.142C223.574 289.693 215.179 290.098 209.802 290.358C208.651 290.414 208.788 288.75 208.914 287.907C210.369 278.184 217.363 267.442 216.701 253.734L223.91 252.25C230.384 261.576 233.033 273.315 234.987 289.142Z"
            fill="#DDE3E9" fill-rule="evenodd" />
        <path d="M186.788 245.693H159.655V269.504H186.788V245.693Z" fill="#FCA871" />
        <path d="M177.5 245L162.5 246H186.664L198 245H177.5Z" fill="#FCA871" stroke="#FCA871" />
        <path d="M198.14 244.862L186.788 245.693V269.504L198.14 267.566V244.862Z" fill="#F0995F" />
        <path clip-rule="evenodd"
            d="M210.354 265.266L198.14 258.553L198.14 261.747L206.201 269.549L210.354 265.266ZM193.009 270.013L188.225 267.261C187.597 264.665 186.811 263.35 185.868 263.315C185.15 262.963 186.348 266.251 184.979 265.941C183.61 265.631 180.305 263.07 179.717 263.565C178.847 264.297 179.564 266.614 180.44 267.776C182.076 269.949 183.452 270.708 186.869 271.734C188.656 272.27 190.579 273.313 192.637 274.861L193.009 270.013Z"
            fill="#D4A181" fill-rule="evenodd" />
        <path clip-rule="evenodd"
            d="M215.742 264.028C211.887 263.911 206.76 262.995 201.341 259.404L199.091 264.167C202.802 267.998 208.063 271.189 212.72 271.151C216.389 271.12 218.351 266.721 215.742 264.028Z"
            fill="#CB5100" fill-rule="evenodd" />
        <path clip-rule="evenodd"
            d="M210.397 271.633C206.283 272.573 199.441 271.233 189.871 267.613C187.383 272.512 186.208 276.016 186.347 278.125C194.529 282.607 201.577 284.672 207.412 284.915C207.158 288.375 207.515 291.68 208.872 294.719C211.661 300.968 228.825 295.571 234.535 296.813C238.356 285.225 231.508 280.349 231.65 272.889C231.805 264.719 225.493 252.014 224.528 251.995L215.726 251.821C215.118 258.051 212.537 264.879 210.397 271.633Z"
            fill="#FF6600" fill-rule="evenodd" />
    </g>
</svg>
