<svg fill="none" height="19" viewBox="0 0 18 19" width="18" xmlns="http://www.w3.org/2000/svg">
    <path
        d="M0.75 16.25H3.75V7.25H0.75V16.25ZM17.25 8C17.25 7.175 16.575 6.5 15.75 6.5H11.0175L11.73 3.0725L11.7525 2.8325C11.7525 2.525 11.625 2.24 11.4225 2.0375L10.6275 1.25L5.6925 6.1925C5.415 6.4625 5.25 6.8375 5.25 7.25V14.75C5.25 15.575 5.925 16.25 6.75 16.25H13.5C14.1225 16.25 14.655 15.875 14.88 15.335L17.145 10.0475C17.2125 9.875 17.25 9.695 17.25 9.5V8Z"
        fill="#2FA9ED" />
</svg>
